# xmcd
#
# Track frame offsets:
#	150
#	10260
#	42103
#	53010
#	65932
#	79975
#	93357
#	111632
#	126217
#	136045
#	147515
#	162344
#	180171
#	215172
#	229934
#	242706
#	252362
#	265989
#	285108
#	296215
#	311375
#	326541
#
# Disc length: 4784 seconds
#
# Revision: 1
# Processed by: cddbd v1.4PL0 Copyright (c) Steve Scherf et al.
# Submitted via: CDmax 1.8
#
DISCID=4912ae16
DTITLE=The Doors - 80 Minutes of the Greatest Doors Hits
DYEAR=2001
DGENRE=Blues
TTITLE0=Hello, I Love You
TTITLE1=Light My Fire
TTITLE2=Break On Though
TTITLE3=Love Street
TTITLE4=Strange Days
TTITLE5=Spanish Caravan
TTITLE6=Roadhouse Blues
TTITLE7=Love Me Two Times
TTITLE8=People Are Strange
TTITLE9=The Crystal Ship
TTITLE10=Love Her Madly
TTITLE11=Waiting For The Sun
TTITLE12=LA Woman
TTITLE13=Alabama Song
TTITLE14=Peace Frog
TTITLE15=Blue Sunday
TTITLE16=You're Lost Little Girl
TTITLE17=The Spy
TTITLE18=Runnin' Blue
TTITLE19=Summer's Almost Gone
TTITLE20=The Unknown Soldier
TTITLE21=Riders On The Storm
EXTD=Complied by Rodney, to be burned on 80 minute CD!!\n\n00 Burnage INc.
EXTT0=
EXTT1=
EXTT2=
EXTT3=
EXTT4=
EXTT5=
EXTT6=
EXTT7=
EXTT8=
EXTT9=
EXTT10=
EXTT11=
EXTT12=
EXTT13=
EXTT14=
EXTT15=
EXTT16=
EXTT17=
EXTT18=
EXTT19=
EXTT20=
EXTT21=
PLAYORDER=
